inDegrees=no
num_controls=7
num_derivatives=13
num_iterations=114
num_multipliers=7
num_parameters=0
num_slacks=7
num_states=26
objective=0.469860
objective_accelerations=0.063041
objective_balance=0.002072
objective_effort=0.020118
objective_height=0.375092
objective_ligament=0.009539
solver_duration=1519.450459
status=Solve_Succeeded
success=true
DataType=double
version=3
OpenSimVersion=4.5
endheader
time	/jointset/ground_pelvis/pelvis_tilt/value	/jointset/ground_pelvis/pelvis_tx/value	/jointset/ground_pelvis/pelvis_ty/value	/jointset/hip_l/hip_flexion_l/value	/jointset/hip_l/hip_adduction_l/value	/jointset/hip_l/hip_rotation_l/value	/jointset/back/lumbar_extension/value	/jointset/patellofemoral_l/patellar_flexion_l/value	/jointset/knee_l/knee_flexion_l/value	/jointset/knee_l/knee_adduction_l/value	/jointset/knee_l/knee_rotation_l/value	/jointset/ankle_l/ankle_angle_l/value	/jointset/subtalar_l/subtalar_angle_l/value	/jointset/ground_pelvis/pelvis_tilt/speed	/jointset/ground_pelvis/pelvis_tx/speed	/jointset/ground_pelvis/pelvis_ty/speed	/jointset/hip_l/hip_flexion_l/speed	/jointset/hip_l/hip_adduction_l/speed	/jointset/hip_l/hip_rotation_l/speed	/jointset/back/lumbar_extension/speed	/jointset/patellofemoral_l/patellar_flexion_l/speed	/jointset/knee_l/knee_flexion_l/speed	/jointset/knee_l/knee_adduction_l/speed	/jointset/knee_l/knee_rotation_l/speed	/jointset/ankle_l/ankle_angle_l/speed	/jointset/subtalar_l/subtalar_angle_l/speed	/forceset/tau_hip_flexion_l	/forceset/tau_hip_adduction_l	/forceset/tau_hip_rotation_l	/forceset/tau_knee_flexion_l	/forceset/tau_ankle_angle_l	/forceset/tau_subtalar_angle_l	/forceset/tau_lumbar_extension	lambda_cid13_p0	lambda_cid13_p1	lambda_cid13_p2	lambda_cid13_p3	lambda_cid13_p4	lambda_cid13_p5	lambda_cid14_p0	/jointset/ground_pelvis/pelvis_tilt/accel	/jointset/ground_pelvis/pelvis_tx/accel	/jointset/ground_pelvis/pelvis_ty/accel	/jointset/hip_l/hip_flexion_l/accel	/jointset/hip_l/hip_adduction_l/accel	/jointset/hip_l/hip_rotation_l/accel	/jointset/back/lumbar_extension/accel	/jointset/patellofemoral_l/patellar_flexion_l/accel	/jointset/knee_l/knee_flexion_l/accel	/jointset/knee_l/knee_adduction_l/accel	/jointset/knee_l/knee_rotation_l/accel	/jointset/ankle_l/ankle_angle_l/accel	/jointset/subtalar_l/subtalar_angle_l/accel	gamma_cid13_p0	gamma_cid13_p1	gamma_cid13_p2	gamma_cid13_p3	gamma_cid13_p4	gamma_cid13_p5	gamma_cid14_p0
1.5	-0.5564555479081185	-0.04022900519738708	0.7910301598798578	1.20257402359441	-0.3477944411029064	-0.117372016014144	-0.3433455135770148	0.5662951426468436	0.566295142647176	-0.05963238958638813	-0.1744218617617984	0.01539517841335739	0.0789113085087307	1.074277593372734	0.4976298556007456	0.4714813110198103	-2.812371913469894	-0.0003922872827861438	-0.5185074633229567	0.606337156804803	-1.541738453212062	-1.541738453212349	-0.208901604354381	0.004578038858304072	0.08745702292250157	0.03170194839829538	-0.205781598537283	0.01679383429124814	0.007665319722794167	-0.06149115890882419	0.02948531835108155	0.01090931111567396	0.1677920256680906	-14.36050817880496	-4.795910691358794	3.421908974868089	-6.410875872955344	-431.4018868720847	-61.27053426611172	-20.19160316512483	0.8588450773481494	0.8667749320264819	-0.5935048976973589	-1.807446974331522	0.2545335326600452	-0.2564865504061499	1.930872488403874	-0.5885773238670996	-0.5885773238669806	-0.3214729240411389	0.1842382758149461	0.3151659230589456	0.3598256071975781	2.584377008092695e-09	1.436888005336206e-06	-2.059408746275186e-08	2.80716229245302e-07	3.014101758555309e-07	-1.439941563375458e-07	2.441515149286735e-07
1.51	-0.545670591290474	-0.03520993293822067	0.7957143312353484	1.17436228012076	-0.3477870824814978	-0.1225708112381934	-0.337188004244635	0.55085003453274	0.5508500345327642	-0.06173959137824755	-0.1743690904572586	0.01628512172437396	0.079244741961432	1.082520387563677	0.5061123160522625	0.4652463070701951	-2.829557491460673	0.001876691778582065	-0.5212029902217405	0.6250465936482459	-1.547073541774239	-1.547073541774212	-0.212498197258802	0.005989425141929692	0.09053213684683771	0.03499853086387977	-0.1984328644957603	0.01616899833425889	0.007976525509967854	-0.06033963594522895	0.02706054238082701	0.00973951462441598	0.1623205281688166	-14.99319327770763	-4.351268860237298	3.54997535026168	-5.806887057338937	-427.3375557888252	-60.81767331899511	-20.69922012134789	0.77802916155671	0.8281856393053054	-0.65440031317165	-1.611177536235163	0.2148234353567013	-0.2685383241783956	1.82326187887245	-0.4745948367282985	-0.4745948366813765	-0.3724472288850312	0.1213821580141503	0.303797117906277	0.3165131621959181	5.656707899538042e-08	1.362581396736789e-06	-4.48031291633365e-07	2.474567154621321e-07	4.185588637279806e-07	-1.40793923975458e-07	2.954966477872764e-07
1.52	-0.5348090002166028	-0.0301081952670209	0.8003329721174272	1.145991268002247	-0.3477566854009788	-0.1277950522441415	-0.3308469440245089	0.5353578514901529	0.5353578514898605	-0.06388149805021857	-0.1743018466191889	0.01720583877279112	0.07961152895798057	1.089604484618196	0.5141629380074212	0.4583752163374581	-2.844225642442814	0.004215404539207908	-0.523596619703081	0.6430473343540075	-1.551153438909831	-1.551153438909492	-0.2158425803729194	0.00747254556066462	0.09361177040258707	0.03837265716774649	-0.1910841304542224	0.01554416237727968	0.008287731297070521	-0.05918811298163117	0.02463576641057396	0.008569718133169877	0.1568490306695562	-15.62903426961461	-3.906339759350828	3.678299524735886	-5.192645678334986	-423.3178524543176	-60.4213911801934	-21.18505908885361	0.6271056500635489	0.7804072327548818	-0.7207222543216922	-1.303961572603786	0.2684802725115621	-0.196107066917484	1.789133260867657	-0.3375390385503803	-0.3375390385504293	-0.2710309659804532	0.1985851028367596	0.3160698493415972	0.3753343748540315	8.724233068157786e-08	1.340858453094608e-06	-6.970692867579195e-07	2.281105125648344e-07	5.01144548788979e-07	-1.22280031894911e-07	3.264041501944344e-07
1.53	-0.5238822578152941	-0.02492826715813749	0.8048797887885708	1.117486105110582	-0.3477027309584896	-0.1330413559401432	-0.3243297705688472	0.5198310631610564	0.5198310631608114	-0.06605609908997917	-0.1742191778803072	0.01815716150454579	0.08001219359129957	1.095551133255003	0.5217333828568372	0.4508861992472916	-2.856367022995757	0.006576458145465834	-0.5255790503506401	0.6602430429449426	-1.553984892908183	-1.553984892908064	-0.2190629036053794	0.009095405335667358	0.09663991829560206	0.04175778355649975	-0.1838692554026874	0.01480942117334039	0.00858444669131786	-0.05782635960656257	0.02181406450178343	0.007339949717789378	0.1514017675425021	-16.40730074831899	-3.42267191952457	3.814433439886105	-4.393258233145318	-419.4243625472042	-59.96255749800961	-21.64649305960103	0.5495487014983299	0.7320121950390761	-0.7781649210258759	-1.103195774918451	0.2199050302289925	-0.186274464729034	1.663142583189404	-0.223116583925918	-0.2231165839588843	-0.3451009904323529	0.1490563372948368	0.2942977677780861	0.3196025538089188	9.315341642286716e-08	1.375005653469489e-06	-7.56558122271039e-07	2.235472024837754e-07	5.470070433628108e-07	-8.749537636350145e-08	3.355966702469323e-07
1.54	-0.5129018280814162	-0.01967530478395907	0.8093486805918806	1.088872734517734	-0.3476251685548279	-0.1383048766228292	-0.3176449694422792	0.5042825266912915	0.5042825266910813	-0.06826241695979354	-0.1741192965591691	0.0191383878169301	0.08044660964509073	1.100341951132173	0.5287697910664199	0.4427902427706513	-2.865867182679855	0.008936996773564789	-0.5270400170403565	0.6765728685351966	-1.555503067044469	-1.55550306704457	-0.22218594637998	0.01091506200918111	0.09959248652848264	0.0451229412621716	-0.1766543803511336	0.01407467996941375	0.008881162085503267	-0.05646460623149131	0.01899236259299454	0.006110181302423055	0.1459545044154646	-17.18827781512839	-2.938581465385953	3.950560169572147	-3.585485053877547	-415.5677248847929	-59.56124910084782	-22.08367391166876	0.3959394981361117	0.6735999047882359	-0.8421101316164549	-0.775717398834707	0.2683772768797635	-0.09181427534898409	1.615956660731433	-0.07488306613727687	-0.07488306613727212	-0.2515748744085788	0.2379444825389298	0.3009539173147272	0.3713406382377439	9.423433643020631e-08	1.437430288642472e-06	-7.762438985729072e-07	2.231946287160507e-07	5.87011813093448e-07	-5.153189288493279e-08	3.426346069273201e-07
